<?xml version="1.0" encoding="UTF-8" standalone="no"?>
<!-- Created with Inkscape (http://www.inkscape.org/) -->

<svg
   version="1.1"
   id="svg1"
   width="873.33331"
   height="872"
   viewBox="0 0 873.33331 872"
   sodipodi:docname="astrobot_logo.svg"
   inkscape:version="1.3.2 (091e20e, 2023-11-25)"
   xmlns:inkscape="http://www.inkscape.org/namespaces/inkscape"
   xmlns:sodipodi="http://sodipodi.sourceforge.net/DTD/sodipodi-0.dtd"
   xmlns="http://www.w3.org/2000/svg"
   xmlns:svg="http://www.w3.org/2000/svg">
  <defs
     id="defs1" />
  <sodipodi:namedview
     id="namedview1"
     pagecolor="#ffffff"
     bordercolor="#000000"
     borderopacity="0.25"
     inkscape:showpageshadow="2"
     inkscape:pageopacity="0.0"
     inkscape:pagecheckerboard="0"
     inkscape:deskcolor="#d1d1d1"
     inkscape:zoom="0.61238532"
     inkscape:cx="436"
     inkscape:cy="436"
     inkscape:window-width="1280"
     inkscape:window-height="747"
     inkscape:window-x="0"
     inkscape:window-y="25"
     inkscape:window-maximized="0"
     inkscape:current-layer="g1" />
  <g
     inkscape:groupmode="layer"
     inkscape:label="Image"
     id="g1">
    <path
       style="display:inline;fill:#000000"
       d="M 397.84848,870.58153 C 371.63571,868.56207 336.19811,861.51405 306.66666,852.44681 256.87211,837.15806 203.06498,808.38671 161.3162,774.72609 143.45199,760.3228 110.3147,727.20832 96.545515,710 43.558153,643.77797 12.301322,569.00185 2.076275,484 -0.83446076,459.80276 0.1151535,396.46325 3.7354391,373.33333 21.522581,259.69172 76.588594,164.19776 164.95591,93.749223 218.09712,51.383787 283.61169,20.994695 349.33333,8.2253251 386.44439,1.0148389 405.61027,-0.52538595 446.56461,0.41154077 487.9936,1.3593263 514.06703,4.8559111 549.33332,14.19337 c 95.16744,25.197489 178.18523,81.674279 238.83782,162.48076 40.59815,54.08827 69.15551,121.30875 79.7115,187.63095 4.7483,29.83309 5.45411,38.77314 5.44973,69.02825 -0.008,52.16952 -4.78948,85.10738 -19.19338,132.204 -27.05249,88.45389 -82.85429,166.78165 -158.13901,221.97626 -64.68497,47.42346 -139.52183,75.68103 -219.99999,83.06957 -17.18413,1.57765 -57.66338,1.5768 -78.15151,-0.002 z m 83.71801,-181.80629 c 33.37083,-3.76198 71.08017,-13.44932 96.4335,-24.77328 35.68231,-15.93737 50.57095,-27.32986 70.81535,-54.18649 18.22935,-24.18342 27.69603,-48.09674 38.53642,-97.34493 3.06768,-13.93652 4.78522,-36.24365 4.03113,-52.3556 C 688.37569,395.86259 674.82198,358.99168 636.20081,310 606.23037,271.98194 559.41569,245.963 490.8647,229.22423 c -7.30619,-1.78403 -12.77226,-3.83585 -13.20198,-4.95569 -1.06436,-2.77367 2.09827,-18.65218 5.04423,-25.32537 2.82358,-6.39599 17.26183,-21.60984 20.50817,-21.60984 1.15232,0 4.71521,1.99996 7.91753,4.44434 15.95072,12.17547 38.63344,8.51191 52.01751,-8.40152 5.96194,-7.53409 7.93886,-14.81802 7.31702,-26.95946 -0.96372,-18.81663 -11.56561,-31.79179 -29.19148,-35.72605 -21.15973,-4.72306 -41.27879,8.76367 -45.74646,30.66596 -1.4529,7.12269 -2.12922,8.12333 -8.88427,13.14471 -18.12681,13.47457 -29.32586,33.13609 -35.32013,62.00946 -0.78661,3.78899 -0.89743,3.83151 -7.72812,2.96575 -31.41981,-3.98232 -51.68989,-4.87872 -78.2634,-3.461 -15.03333,0.80204 -31.53333,2.03831 -36.66666,2.74727 -12.48544,1.72434 -28.73504,7.04474 -39.33333,12.87842 -18.78295,10.3388 -45.25082,34.45603 -56.48742,51.4707 -9.44786,14.30612 -19.08497,36.98289 -25.30942,59.55476 -5.87219,21.29445 -13.38939,70.0945 -16.9445,110 -0.84931,9.53333 -1.75288,17.68224 -2.00794,18.10868 -1.29481,2.16481 -4.5847,46.18636 -4.64834,62.19878 -0.19853,49.94473 9.49083,83.63215 30.48274,105.98071 13.90963,14.80857 35.81287,30.22101 49.58154,34.88854 18.35169,6.22117 69.56583,14.03152 110,16.77543 24.4542,1.65948 85.82236,0.60771 107.5665,-1.84357 z M 372.23238,541.26325 c -16.89211,-2.37068 -33.76229,-15.60452 -41.96379,-32.91855 -4.09431,-8.64343 -4.2686,-9.69187 -4.2686,-25.67803 V 466 l 5.1825,-9.69967 c 6.10787,-11.4316 16.53603,-21.59915 27.39467,-26.71003 6.57344,-3.09395 9.10114,-3.49926 22.0895,-3.54202 13.97449,-0.046 15.08606,0.16022 23.55335,4.36974 9.7064,4.82554 20.42362,15.05085 24.81899,23.67981 7.00991,13.76182 9.16582,34.30727 5.03691,48.00093 -2.23094,7.39898 -10.50899,20.91993 -15.55281,25.40316 -12.142,10.79251 -29.8772,16.06484 -46.29072,13.76133 z m -124.38562,-3.02743 c -27.11877,-10.11491 -38.73217,-51.69792 -23.20982,-83.10526 8.3401,-16.87504 20.2934,-24.3709 36.23879,-22.72519 14.87126,1.53485 28.88601,17.01834 33.27977,36.76748 5.8577,26.32922 -3.22125,54.85615 -20.90524,65.68627 -7.41382,4.54041 -18.37664,5.99762 -25.4035,3.3767 z"
       id="path1" />
  </g>
</svg>
