<?xml version="1.0" encoding="UTF-8" standalone="no"?>
<!DOCTYPE svg PUBLIC "-//W3C//DTD SVG 1.1//EN" "http://www.w3.org/Graphics/SVG/1.1/DTD/svg11.dtd">
<svg width="100%" height="100%" viewBox="0 0 1749 1241" version="1.1" xmlns="http://www.w3.org/2000/svg" xmlns:xlink="http://www.w3.org/1999/xlink" xml:space="preserve" xmlns:serif="http://www.serif.com/" style="fill-rule:evenodd;clip-rule:evenodd;stroke-linejoin:round;stroke-miterlimit:2;">
    <g transform="matrix(1,0,0,1,10.224,-1.70871)">
        <path d="M585.45,374.284C585.817,371.029 586.559,367.56 587.746,363.949C592.736,348.761 605.011,328.572 608.434,322.487C617.323,306.684 623.314,289.443 633.6,274.409C661.918,233.02 701.814,199.376 742.608,171.134C862.43,88.18 1038.22,13.753 1184.24,73.246C1214.32,85.498 1241,102.985 1267.65,121.152C1316.08,154.174 1372.37,214.241 1381.08,275.163C1396.07,380.129 1339.08,465.855 1287.06,550.979C1270.4,578.248 1256.78,613.677 1238.21,640.654C1241.81,645.51 1244.67,651.186 1246.43,656.017C1251.49,669.931 1254.54,689.852 1250.47,706.262C1246.99,720.316 1238.85,732.088 1224.59,738.572C1204.12,747.875 1182.59,746.197 1162.86,737.388C1136.41,725.581 1113.49,700.421 1102.85,676.085C1101.76,673.598 1100.09,669.112 1098.37,663.654C1086.63,670.93 1069.31,680.385 1054.96,685.405C1042.36,689.813 1031.15,690.368 1024.31,688.091C1018.04,685.999 1009.74,678.918 1009.18,664.435C1009.15,663.812 1009.14,663.161 1009.15,662.483C1003.95,663.781 998.701,664.606 993.506,664.852C977.571,665.603 962.121,661.245 949.358,649.758C942.11,643.235 936.214,635.068 931.69,626.105C919.079,634.952 904.698,641.357 891.921,643.672C880.257,645.785 869.622,644.543 861.304,640.384C847.211,633.337 839.489,621.913 836.154,608.425C835.529,608.623 834.905,608.81 834.285,608.987C811.471,615.506 785.317,606.763 765.699,589.522C757.523,582.336 750.619,573.783 745.516,564.625C740.532,566.12 735.322,567.071 729.998,567.426C718.256,568.209 692.299,560.067 672.927,547.781C662.754,541.329 654.727,533.533 649.821,525.911C631.819,529.659 611.938,527.166 594.584,514.77C555.787,487.058 530.127,442.171 561.511,398.232C564.269,394.371 567.605,391.335 571.248,388.694C573.553,387.022 576.166,385.783 578.191,383.758C580.618,381.331 582.955,377.738 585.45,374.284ZM651.252,487.099C654.596,481.067 658.564,475.083 660.307,471.009C660.728,469.63 664.235,458.211 666.027,453.728C667.404,450.285 668.948,447.923 669.828,446.819C675.232,440.034 681.648,439.501 685.499,439.711C691.09,440.016 697.188,442.162 701.09,449.967C710.591,468.969 704.293,491.068 686.738,507.207C685.836,508.037 684.904,508.849 683.945,509.642C686.361,511.89 689.737,514.842 692.647,516.688C704.717,524.343 720.233,531.176 727.548,530.688C730.373,530.5 733.185,529.963 735.848,529.095C735.871,527.983 735.929,526.875 736.02,525.774C736.359,521.706 744.262,492.008 751.594,482.4C760.184,471.143 770.726,471.071 778.595,475.006C781.933,476.674 785.467,479.569 787.741,484.676C788.631,486.673 789.508,489.682 789.809,493.386C790.22,498.449 789.412,506.923 789.412,508.747C789.412,522.836 784.446,535.138 776.309,544.8C779.476,551.054 784.411,556.949 790.005,561.865C799.944,570.6 812.612,576.887 824.17,573.585C828.234,572.424 832.606,570.568 836.786,568.16C838.005,561.948 839.512,556.1 840.958,551.038C842.083,547.102 848.642,531.832 855.828,524.692C864.65,515.927 874.785,514.782 883.528,519.154C888.898,521.839 893.956,527.215 894.804,536.365C895.461,543.452 891.067,558.275 890.037,561.107C886.517,570.789 879.608,579.982 871.088,587.785C871.002,589.358 870.973,590.926 871.015,592.478C871.173,598.469 871.989,604.561 877.77,607.452C880.775,608.954 884.82,607.78 889.176,606.548C896.643,604.437 904.546,600.329 911.59,595.217C914.938,592.787 918.105,590.133 920.903,587.323C920.473,581.909 919.668,566.073 923.033,558.434C925.994,551.712 930.893,547.59 936.657,545.668C938.707,544.985 949.116,544.23 953.843,545.945C960.801,548.468 964.215,553.491 965.702,557.952C969.141,568.271 968.199,579.466 963.221,590.521C962.231,592.719 961.066,594.92 959.745,597.109C962.251,606.708 966.842,615.959 973.989,622.391C980.652,628.388 989.265,628.946 997.61,627.369C1004.06,626.149 1010.44,623.641 1016.24,620.438C1018.77,610.46 1021.33,602.292 1022.63,599.689C1023.4,598.139 1029.1,590.047 1035.03,585.029C1039.41,581.317 1044.14,579.153 1047.74,578.44C1052.37,577.52 1056.57,578.152 1060.23,579.778C1064.13,581.511 1067.76,584.418 1070.28,589.451C1075.04,598.987 1074.34,609.338 1069.52,619.112C1065.09,628.095 1056.64,636.545 1050.75,641.365C1049.94,642.03 1049.11,642.688 1048.26,643.338C1047.89,645.216 1047.55,647.087 1047.25,648.913C1048.08,648.607 1048.88,648.291 1049.63,647.972C1063.84,641.874 1079.43,632.503 1086.03,627.75L1092.65,618.071C1094.06,612.215 1096.6,607.56 1099.66,604.502C1106.42,597.74 1112.01,597.158 1113.82,596.999C1119.23,596.525 1123.34,598.202 1126.56,600.59C1130.31,603.371 1133.94,607.812 1134.09,615.262C1134.13,617.132 1133.61,621.981 1130.44,627.848C1130.03,628.597 1129.57,629.409 1129.05,630.27C1130.72,638.295 1134.75,657.141 1136.58,661.327C1142.75,675.436 1154.85,689.95 1169.35,699.159C1181.64,706.968 1195.87,711.182 1209.35,705.053C1213.93,702.972 1214.94,698.102 1215.41,693.345C1216.27,684.793 1214.32,675.475 1211.82,668.599C1211.49,667.687 1210.81,666.192 1210.2,664.898C1208.77,664.732 1207.51,664.581 1207.17,664.528C1195.58,662.682 1192.98,653.58 1192.6,652.52C1190.23,645.922 1190.89,639.317 1196.91,633.294C1222.15,608.053 1236.17,563.646 1255.64,531.779C1303.26,453.873 1358.35,376.436 1344.63,280.37C1337.27,228.876 1287.84,179.485 1246.91,151.573C1222.41,134.874 1198,118.607 1170.35,107.344C1035.57,52.432 874.161,124.841 763.566,201.406C726.403,227.135 689.785,257.496 663.987,295.2C654.311,309.343 648.887,325.672 640.525,340.538C638.205,344.663 631.134,356.103 626.026,367.252C625.917,367.488 625.809,367.731 625.701,367.98C627.666,370.909 628.813,374.432 628.813,378.221C628.813,385.072 625.062,391.055 619.503,394.225C618.026,396.392 616.061,398.275 613.655,399.695C612.956,400.107 612.242,400.468 611.516,400.778C609.095,404.052 606.147,407.873 604.226,409.794C601.572,412.447 598.566,414.632 595.47,416.714C594.107,417.631 592.481,418.222 591.473,419.633C573.432,444.89 593.684,468.88 615.985,484.809C627.245,492.852 640.594,492.031 651.252,487.099Z"/>
    </g>
    <path d="M593.776,517.929C593.898,514.791 594.821,511.664 596.574,508.877C596.962,507.769 597.308,506.888 597.58,506.371C602.623,496.776 610.892,496.096 614.242,496.096C620.1,496.096 624.523,498.415 627.913,502.158C630.229,504.715 633.719,509.574 632.458,517.505C632.288,518.572 631.701,521.092 630.308,523.901C630.272,523.974 630.236,524.047 630.198,524.12C629.191,527.751 626.846,536.19 626.589,536.963C624.236,544.02 618.676,551.309 612.98,558.556C611.52,560.414 610.073,562.284 608.902,564.222C608.57,564.771 608.146,565.693 607.909,566.227C611.798,573.394 622.251,579.15 633.678,585.185C656.9,597.449 685.548,607.488 700.088,614.273C783.962,653.415 869.595,686.365 956.448,717.948C975.261,724.789 993.534,735.243 1012.08,744.785C1028.07,753.014 1044.24,760.623 1061.53,763.093C1071.49,764.516 1078.81,759.002 1085.45,752.415C1095.88,742.061 1104.54,728.501 1113.41,718.15C1116.32,714.753 1124.78,705.418 1126.38,703.651C1127.46,694.509 1135.24,687.407 1144.67,687.407C1154.83,687.407 1163.08,695.656 1163.08,705.817C1163.08,711.543 1161.18,717.683 1157.46,723.575C1153.07,730.549 1145.33,737.489 1141.37,742.111C1129.65,755.779 1117.91,774.221 1103.14,785.898C1089.98,796.309 1074.76,802.175 1056.33,799.542C1035.03,796.5 1014.92,787.658 995.228,777.524C978.083,768.701 961.262,758.877 943.865,752.551C855.997,720.599 769.372,687.237 684.517,647.639C666.907,639.421 629.447,626.416 604.161,610.716C590.177,602.034 579.661,592.081 574.742,582.244C568.29,569.339 570.315,557.532 576.655,546.429C579.543,541.372 583.526,536.476 587.261,531.731C589.014,529.504 590.924,527.523 591.659,525.32C591.858,524.723 592.73,521.547 593.776,517.929Z"/>
    <path d="M603.151,601.087C603.936,599.639 604.739,598.51 605.418,597.694C609.966,592.223 615.372,590.792 620.001,590.792C629.73,590.792 634.274,596.057 636.8,601.473C638.3,604.689 639.395,609.164 637.747,614.666C637.519,615.428 636.834,616.657 636.004,617.981C635.438,620.415 633.787,627.371 632.766,630.114C631.165,634.417 628.868,637.279 627.143,638.899C626.172,639.81 625.129,640.596 624.032,641.256C620.931,649.086 618.559,657.586 616.901,665.461C608.679,704.517 594.539,742.436 582.53,780.463C572.198,813.181 562.898,846.33 553.204,879.288C543.999,910.586 530.977,940.606 524.111,972.647C518.448,999.073 513.264,1025.68 506.695,1051.95C503.735,1063.79 492.164,1088.54 483.235,1109.19C479.189,1118.55 474.983,1130.95 474.596,1132.1C474.183,1141.89 466.1,1149.72 456.203,1149.72C446.042,1149.72 437.793,1141.47 437.793,1131.31C437.793,1126.36 440.438,1116.35 445.312,1104.37C453.502,1084.25 467.812,1055.67 470.975,1043.02C477.443,1017.15 482.533,990.952 488.109,964.932C495.168,931.989 508.416,901.078 517.881,868.899C527.643,835.708 537.015,802.325 547.42,769.375C559.066,732.495 572.897,695.754 580.872,657.875C583.724,644.326 588.372,629.375 594.577,616.964C597.134,611.85 599.633,605.819 603.151,601.087Z"/>
    <g transform="matrix(1,0,0,1,0.72132,1.79008)">
        <path d="M480.841,1152.57C482.917,1153.09 488.518,1154.4 492.53,1154.56C506.059,1155.09 522.105,1152.63 528.589,1149.39C537.656,1144.86 547.793,1142.05 557.849,1139.08C565.068,1136.94 572.285,1134.81 578.437,1130.71C591.506,1121.99 602.479,1111.92 614.614,1101.81C622.433,1095.29 634.152,1091.37 643.052,1086.42C657.798,1078.23 672.554,1067.41 686.826,1058.24C705.72,1046.09 722.171,1030.23 740.121,1016.76C764.296,998.634 786.264,979.873 808.318,959.198C836.684,932.605 863.419,905.231 890.018,876.858C916.64,848.461 943.596,820.36 969.9,791.865C975.243,786.076 980.026,779.384 985.8,773.945C985.908,772.639 986.157,771.325 986.558,770.022C989.547,760.312 999.858,754.855 1009.57,757.844C1009.08,757.695 1007.8,757.427 1007.8,757.427C1007.8,757.427 1020.52,761.027 1023.32,763.821C1026.16,766.667 1034.04,776.932 1024.43,788.787C1022.75,790.869 1012.44,799.513 1011.55,800.291C1006.06,805.094 1001.88,811.503 996.955,816.838C970.587,845.404 943.566,873.574 916.879,902.041C889.735,930.994 862.446,958.922 833.501,986.059C810.45,1007.67 787.481,1027.27 762.213,1046.22C743.557,1060.21 726.373,1076.59 706.736,1089.21C691.816,1098.8 676.348,1110.04 660.933,1118.61C653.919,1122.51 644.348,1124.96 638.185,1130.09C625.021,1141.06 613.038,1151.89 598.861,1161.34C589.662,1167.47 579.088,1171.19 568.292,1174.39C560.333,1176.74 552.232,1178.74 545.055,1182.33C533.645,1188.03 502.816,1193.61 481.024,1190.45C467.52,1188.5 457.136,1182.86 451.713,1175.62C445.485,1167.32 443.359,1156.39 444.312,1144.41C445.124,1134.22 448.67,1123.01 448.67,1114.67C448.67,1104.51 456.92,1096.26 467.08,1096.26C477.241,1096.26 485.49,1104.51 485.49,1114.67C485.49,1122.69 482.958,1133.06 481.507,1143.09C481.13,1145.69 480.845,1148.26 480.899,1150.69C480.913,1151.34 480.795,1151.99 480.841,1152.57Z"/>
    </g>
    <path d="M723.394,656.933C725.586,655.5 728.438,655.173 731.007,656.313C735.033,658.101 736.85,662.82 735.063,666.846C734.744,667.565 733.428,670.066 729.64,671.624C723.219,674.264 693.148,682.609 689.826,683.47C649.988,693.798 615.599,706.376 580.598,727.376C576.821,729.643 571.915,728.416 569.649,724.639C567.382,720.862 568.609,715.956 572.386,713.689C608.742,691.876 644.439,678.748 685.821,668.019C688.939,667.211 716.957,659.509 723.394,656.933Z"/>
    <path d="M790.731,687.008C791.534,683.562 794.578,680.948 798.279,680.843C802.682,680.719 806.358,684.192 806.483,688.595C806.525,690.077 806.228,691.85 805.281,693.789C804.374,695.644 802.548,698.071 799.862,700.71C788.773,711.603 760.279,729.793 754.968,732.669C714.056,754.83 668.462,768.342 624.363,782.517C616.015,785.2 599.53,789.304 585.526,794.319C577.469,797.204 570.222,800.154 566.779,803.596C563.665,806.711 558.607,806.711 555.493,803.596C552.378,800.482 552.378,795.424 555.493,792.31C559.052,788.751 565.346,785.174 573.009,782.022C588.335,775.716 609.547,770.513 619.478,767.321C662.646,753.446 707.318,740.327 747.366,718.634C751.673,716.301 772.445,703.115 784.459,693.092C787.118,690.874 789.951,687.853 790.731,687.008Z"/>
    <path d="M847.6,709.099C846.617,707.726 846.059,706.033 846.114,704.216C846.247,699.814 849.929,696.347 854.332,696.48C860.289,696.66 863.139,699.48 864.583,702.311C865.87,704.834 866.245,708.383 864.574,712.505C861.535,720.003 848.472,732.894 845.907,735.61C824.011,758.793 798.583,780.512 773.285,799.819C732.704,830.788 685.78,849.804 644.475,879.308C612.774,901.952 583.296,933.771 545.744,946.288C541.566,947.681 537.042,945.419 535.649,941.241C534.256,937.062 536.518,932.539 540.697,931.146C576.767,919.122 604.747,888.07 635.197,866.32C676.365,836.914 723.155,817.996 763.601,787.13C788.225,768.338 812.991,747.216 834.302,724.651C835.84,723.022 843.711,713.712 847.6,709.099Z"/>
    <path d="M912.031,742.37C911.624,741.27 911.454,740.062 911.578,738.817C911.932,735.26 914.576,732.48 917.902,731.791C919.024,731.2 921.837,729.736 922.357,729.634C925.083,729.097 927.066,729.928 928.427,730.839C929.806,731.762 930.877,733.035 931.508,734.767C931.888,735.808 932.706,738.088 931.061,741.378C924.408,754.684 911.956,769.148 901.302,779.392C867.988,811.424 828.007,835.644 795.983,869.353C766,900.914 739.038,935.317 704.998,962.839C674.767,987.281 639.828,1003.09 607.828,1024.67C577.531,1045.11 552.844,1072.29 522.81,1093.08C519.188,1095.59 514.212,1094.68 511.705,1091.06C509.198,1087.44 510.103,1082.46 513.724,1079.96C543.812,1059.13 568.552,1031.91 598.903,1011.44C630.52,990.116 665.093,974.576 694.963,950.426C728.457,923.346 754.908,889.415 784.411,858.359C816.601,824.475 856.752,800.085 890.239,767.886C897.55,760.856 905.893,751.646 912.031,742.37Z"/>
    <path d="M830.359,694.735C831.118,696.826 834.726,706.771 835.485,708.953C840.667,723.851 847.158,738.212 852.155,753.2C858.199,771.332 875.143,796.425 894.358,815.905C906.787,828.504 920.124,838.821 932.205,842.848C936.384,844.241 938.646,848.765 937.253,852.943C935.86,857.122 931.336,859.384 927.158,857.991C913.145,853.32 897.411,841.728 882.995,827.114C861.943,805.773 843.634,778.113 837.012,758.248C832.038,743.325 825.569,729.03 820.41,714.197C819.465,711.48 815.01,699.444 814.659,697.911C812.979,690.574 819.755,688.368 820.892,688.145C821.967,687.934 826.178,687.013 829.203,691.733C829.807,692.675 830.187,693.696 830.359,694.735ZM822.481,704.02C819.856,704.016 817.285,702.719 815.765,700.346C817.923,703.714 820.711,704.126 822.481,704.02Z"/>
    <path d="M674.171,658.288C670.541,655.794 669.618,650.821 672.113,647.191C674.607,643.561 679.58,642.638 683.21,645.133C695.579,653.632 703.342,666.602 709.056,681.005C714.197,693.962 717.69,708.072 722.19,720.345C741.42,772.79 759.891,821.604 793.407,866.779C799.781,875.369 806.531,885.843 814.577,894.627C821.579,902.27 829.531,908.709 839.497,910.37C843.842,911.094 846.781,915.209 846.057,919.554C845.333,923.899 841.218,926.839 836.873,926.114C825.941,924.292 816.565,918.638 808.366,911.026C797.458,900.898 788.683,887.2 780.589,876.29C746.134,829.85 726.972,779.754 707.204,725.84C702.749,713.691 699.309,699.718 694.22,686.892C689.705,675.512 683.943,665.003 674.171,658.288Z"/>
    <path d="M789.433,990.269C792.24,987.202 796.99,986.792 800.289,989.421C803.734,992.166 804.303,997.191 801.558,1000.64C798.494,1004.48 794.346,1006.33 789.254,1006.26C784.495,1006.21 778.406,1004.04 771.859,1000.05C751.569,987.678 724.24,957.327 719.726,952.465C681.491,911.29 639.172,866.545 617.726,813.754C614.367,805.486 603.685,773.729 594.623,753.059C592.447,748.098 590.389,743.812 588.556,740.768C587.876,739.639 587.399,738.711 586.863,738.282C586.176,737.732 585.12,737.633 584.107,737.401C581.698,736.849 579.212,736.465 577.25,735.898C573.019,734.674 570.577,730.245 571.801,726.014C573.025,721.782 577.453,719.341 581.685,720.564C583.854,721.192 586.727,721.547 589.327,722.256C592.21,723.042 594.831,724.216 596.834,725.818C599.902,728.273 604.623,736.118 609.241,746.65C618.364,767.458 629.132,799.423 632.514,807.746C653.245,858.777 694.463,901.802 731.422,941.604C735.657,946.165 761.133,974.814 780.167,986.418C782.845,988.05 785.341,989.323 787.588,989.968C788.157,990.131 789.002,990.227 789.433,990.269Z"/>
    <path d="M535.403,876.884C531.799,874.351 530.929,869.369 533.462,865.766C535.995,862.162 540.977,861.292 544.581,863.825C552.409,869.326 558.675,881.357 563.166,895.664C568.992,914.228 572.404,936.628 575.848,948.681C587.742,990.311 608.256,1026.81 637.412,1058.74C642.297,1064.09 653.64,1079.05 665.354,1087.87C668.503,1090.23 671.624,1092.16 674.641,1092.97C676.171,1093.38 677.643,1093.53 678.918,1092.67C682.583,1090.23 687.542,1091.22 689.985,1094.89C692.428,1098.55 691.437,1103.51 687.772,1105.96C680.549,1110.77 671.795,1110.12 662.8,1105.21C647.968,1097.12 631.849,1076.32 625.624,1069.51C594.78,1035.72 573.083,997.107 560.5,953.066C557.083,941.104 553.719,918.868 547.936,900.444C544.686,890.088 541.069,880.866 535.403,876.884Z"/>
    <path d="M490.084,1012.45C487.251,1009.08 487.689,1004.04 491.061,1001.21C494.434,998.375 499.472,998.813 502.305,1002.19C506.242,1006.87 508.595,1012.5 510.215,1018.72C512.139,1026.1 512.94,1034.42 515.601,1042.41C521.088,1058.87 535.637,1090.72 554.36,1113.56C565.573,1127.24 577.982,1138.04 591.208,1138.04C595.613,1138.04 599.189,1141.62 599.189,1146.02C599.189,1150.43 595.613,1154.01 591.208,1154.01C573.932,1154.01 556.663,1141.55 542.016,1123.68C521.954,1099.2 506.337,1065.09 500.458,1047.45C498.097,1040.37 497.049,1033.05 495.593,1026.25C494.483,1021.07 493.245,1016.22 490.084,1012.45Z"/>
    <path d="M515.829,1073.59C516.149,1073.45 516.483,1073.33 516.828,1073.23C522.493,1071.65 525.133,1075.78 525.345,1076.05C526.559,1077.63 527.121,1079.44 526.973,1081.49C526.886,1082.7 526.546,1084.27 525.253,1085.89C524.922,1086.3 524.388,1086.91 523.486,1087.52C523.398,1087.58 522.74,1088.05 521.429,1088.53C518.95,1089.44 502.56,1095.11 497.069,1098.04C480.067,1107.11 469.231,1117.98 460.782,1134.88C458.812,1138.82 454.014,1140.42 450.074,1138.45C446.135,1136.48 444.535,1131.68 446.505,1127.74C456.538,1107.67 469.368,1094.72 489.558,1083.96C495.257,1080.92 514.204,1074.16 515.829,1073.59Z"/>
    <path d="M522.226,943.371C522.707,942.639 524.616,939.77 525.732,938.705C527.016,937.478 528.369,936.777 529.504,936.418C531.738,935.713 533.821,935.929 535.719,936.828C537.143,937.501 538.642,938.626 539.734,940.759C541.741,944.68 540.188,949.492 536.267,951.5C536.123,951.573 535.978,951.642 535.832,951.706C535.307,952.482 534.751,953.29 534.564,953.508C530.145,958.663 524.188,962.166 518.388,965.481C514.563,967.667 509.684,966.336 507.499,962.511C505.313,958.687 506.644,953.808 510.468,951.623C514.607,949.258 519.018,946.987 522.226,943.371ZM528.457,951.198C527.247,950.458 526.219,949.386 525.526,948.032C526.337,949.616 527.35,950.606 528.457,951.198Z"/>
    <path d="M790.192,265.398C788.742,259.713 790.24,253.429 794.685,248.983C796.643,247.026 798.622,245.23 800.617,243.589C802.068,241.043 803.676,238.713 805.563,236.826C809.872,232.517 816.487,229.475 825.103,229.598C826.466,229.618 827.915,229.73 829.433,229.934C846.908,227.081 863.201,233.567 873.936,244.739C888.151,259.532 894.487,284.482 879.037,310.199C878.659,311.685 878.266,313.231 877.652,314.648C875.137,320.445 871.183,325.263 865.063,328.323C864.504,328.603 863.927,328.86 863.334,329.094C857.823,333.341 850.435,335.265 841.88,334.239C830.804,332.911 816.512,325.487 810.667,322.565C794.315,314.389 787.183,305.582 784.914,295.657C783.212,288.213 784.454,278.654 790.192,265.398Z"/>
    <path d="M1127.67,371.535C1128.15,371.399 1128.61,371.279 1129.07,371.175C1134.32,369.977 1139.14,370.355 1143.35,371.874C1148.34,373.675 1153.69,377.298 1156.93,384.467C1159.23,385.297 1161.38,386.631 1163.21,388.467C1169.05,394.304 1173.34,406.117 1172.29,418.112C1171.2,430.586 1164.72,442.108 1154.27,447.333C1152.07,448.43 1148.74,450.908 1146.58,453.072C1141.58,458.066 1131.79,461.276 1119.76,458.795C1108.88,456.549 1095.01,450.149 1089.36,447.089C1085.8,445.163 1083.79,443.377 1083.25,442.835C1076.64,436.224 1074.11,424.229 1077.96,411.383C1080.44,403.118 1085.18,394.551 1089.32,389.369C1092.62,385.234 1096.08,382.665 1098.59,381.41C1110.55,375.431 1119.94,372.332 1127.67,371.535Z"/>
    <path d="M1161.24,388.793C1161.6,390.201 1161.85,391.81 1161.85,393.577C1161.85,403.058 1154.15,410.756 1144.67,410.756C1136.63,410.756 1129.87,405.225 1128,397.765C1127.75,397.151 1127.54,396.548 1127.41,396.016C1126.89,393.857 1126.29,390.873 1127.8,385.99C1130.59,376.93 1140.22,371.846 1149.28,374.643C1155.89,376.683 1160.38,382.356 1161.24,388.793ZM1128.74,399.421C1129.39,400.97 1130.05,401.929 1130.05,401.929C1130.05,401.929 1129.4,400.809 1128.74,399.421ZM1161.27,393.085C1161.15,394.099 1160.94,395.115 1160.63,396.125C1160.98,394.994 1161.18,393.987 1161.27,393.085Z"/>
    <path d="M1108.94,381.053C1108.38,373.684 1112.66,366.508 1119.91,363.723C1124.54,361.948 1127.55,362.42 1129.07,362.645C1135.16,363.544 1138.71,366.72 1141.07,370.368C1142.54,372.647 1142.02,387.482 1142.02,387.482C1142.02,387.482 1143.29,383.609 1143.29,381.42C1143.29,390.902 1135.59,398.599 1126.11,398.599C1116.63,398.599 1108.93,390.902 1108.93,381.42C1108.93,381.301 1108.93,381.178 1108.94,381.053ZM1121.77,396.389C1124.16,397.201 1127.59,397.582 1132.23,395.798C1128.76,397.132 1125.12,397.261 1121.77,396.389Z"/>
    <path d="M1079.74,402.213C1077.76,396.237 1079.14,389.381 1083.89,384.628C1089.97,378.552 1096.89,372.94 1104.62,369.023C1104.75,368.892 1104.88,368.762 1105.01,368.632C1112.5,361.141 1122.38,360.359 1130.87,363.64C1136.86,364.183 1143.17,365.946 1149.79,369.253C1156.21,372.463 1161.65,378.167 1165.35,385.952C1169.17,393.983 1171.19,404.606 1171.11,415.213C1171.03,425.709 1168.9,436.102 1165.32,443.8C1161.65,451.681 1156.29,457.201 1150.43,460.129C1144.13,463.279 1135.26,464.677 1125.51,463.635C1113.84,462.389 1100.76,457.794 1091.2,451.366C1074.75,440.305 1068.54,424.239 1076.19,408.928C1077.35,406.626 1078.53,404.389 1079.74,402.213ZM1135.95,405.945C1133.46,406.71 1130.49,407.07 1126.95,406.842C1124.12,406.661 1121.5,405.806 1119.23,404.444C1115.38,409.487 1111.8,415.047 1108.51,421.219C1109.68,422.208 1111.32,423.502 1112.66,424.246C1116.67,426.462 1121.41,428.115 1125.99,428.993C1128.84,429.54 1131.59,430.192 1133.71,429.827C1134.45,427.522 1136.71,420.041 1136.75,414.95C1136.78,411.88 1136.53,408.797 1135.95,405.945Z"/>
    <path d="M935.915,334.835C935.73,334.04 935.6,333.221 935.529,332.383C934.729,322.935 941.749,314.615 951.197,313.815C957.095,313.315 962.274,315.268 966.332,320.283C967.901,322.222 969.844,325.55 970.367,330.256C970.706,333.304 970.133,338.314 969.575,341.462C972.653,342.328 975.976,343.825 979.401,345.97C980.964,346.949 982.648,348.098 984.476,349.135C985.413,349.666 986.303,350.836 987.593,350.406C989.979,349.611 994.227,348.826 996.104,348.499C999.137,346.025 1003.92,342.75 1004.83,342.345C1015.68,337.557 1022.39,344.101 1024.56,346.489C1025.7,347.738 1035.4,358.866 1023.73,370.534C1003.44,390.825 967.965,396.651 944.407,373.093C940.757,369.443 937.577,363.585 935.982,356.767C934.231,349.28 934.396,340.761 935.915,334.835ZM949.523,347.892C949.536,347.873 949.549,347.855 949.562,347.836C947.132,347.393 944.865,346.435 942.89,345.069C944.91,346.572 947.134,347.493 949.523,347.892Z"/>
</svg>
