<?xml version="1.0" encoding="UTF-8" standalone="no"?>
<!DOCTYPE svg PUBLIC "-//W3C//DTD SVG 1.1//EN" "http://www.w3.org/Graphics/SVG/1.1/DTD/svg11.dtd">
<svg width="100%" height="100%" viewBox="0 0 1749 1241" version="1.1" xmlns="http://www.w3.org/2000/svg" xmlns:xlink="http://www.w3.org/1999/xlink" xml:space="preserve" xmlns:serif="http://www.serif.com/" style="fill-rule:evenodd;clip-rule:evenodd;stroke-linejoin:round;stroke-miterlimit:2;">
    <path d="M324.723,604.464C325.322,605.5 327.534,609.345 328.506,611.284C330.573,615.406 331.435,619.406 331.302,622.781C330.969,631.2 323.864,637.766 315.444,637.434C308.042,637.141 302.072,631.613 300.964,624.56C300.332,623.473 298.89,620.978 298.08,619.472C296.21,615.994 294.939,612.437 294.531,609.176C292.076,589.531 298.266,563.85 301.684,544.484C307.802,509.812 329.826,477.081 344.446,445.404C414.041,294.616 540.122,173.719 699.74,121.843C770.089,98.98 843.382,85.41 917.647,89.123C973.185,91.9 1030.21,107.493 1079.83,132.305C1205.43,195.105 1272.97,286.682 1300.4,423.854C1307.04,457.022 1313.68,490.742 1317.86,524.129C1318.6,530.051 1322.22,534.519 1324.64,539.247C1327.88,545.579 1330.13,552.06 1330.13,559.294C1330.13,567.721 1323.29,574.562 1314.86,574.562C1306.44,574.562 1299.6,567.721 1299.6,559.294C1299.6,554.698 1296.39,551.213 1294.21,547.101C1291.11,541.268 1288.45,535.064 1287.56,527.917C1283.47,495.26 1276.95,462.284 1270.46,429.842C1245.04,302.738 1182.56,217.807 1066.18,159.616C1020.26,136.658 967.51,122.189 916.122,119.619C845.584,116.092 775.997,129.166 709.178,150.883C557.684,200.118 438.223,315.086 372.17,458.2C358.607,487.587 337.43,517.626 331.754,549.791C328.865,566.159 322.936,587.681 324.723,604.464Z"/>
    <path d="M1198.58,618.208C1198.96,617.806 1199.99,616.672 1200.52,615.913C1202.06,613.699 1203.42,611.165 1204.76,608.666C1208.24,602.189 1211.81,595.972 1215.77,592.008C1220.77,587.003 1228.01,584.487 1236.79,584.868C1242.08,585.097 1248.21,586.457 1254.02,587.609C1256.4,588.083 1260.42,588.498 1260.93,588.551C1268.03,586.731 1274.27,583.636 1279.88,580.83C1283.66,578.943 1286.05,574.439 1287.95,570.213C1289.23,567.37 1290.17,563.477 1290.68,561.032C1289.43,558.817 1288.72,556.259 1288.72,553.536C1288.72,545.11 1295.56,538.269 1303.99,538.269C1311.65,538.269 1320.03,542.643 1321.47,555.262C1322.16,561.313 1320.51,572.253 1315.8,582.732C1310.99,593.438 1303.1,603.36 1293.54,608.141C1286.02,611.901 1277.57,615.867 1268.02,618.254C1262.3,619.685 1254.15,618.817 1245.8,617.097C1242.79,616.478 1238.04,615.849 1235.7,615.557C1232.56,619.847 1230.14,626.383 1226.79,631.56C1221.49,639.755 1214.69,645.662 1206.59,647.687C1188.65,652.173 1171.18,646.158 1153.95,638.881C1142.7,634.132 1131.71,628.257 1120.15,630.571C1111.81,632.238 1110.38,639.687 1107.72,645.582C1103.35,655.291 1098.23,663.951 1089.82,669.001C1083.37,672.868 1074.65,674.8 1064.85,674.729C1047.74,674.605 1026.63,668.489 1015.07,664.635C1008.92,662.585 999.943,656.741 990.998,651.503C987.118,649.232 980.437,646.535 979.305,646.083C970.324,648.207 965.907,655.541 960.216,661.591C949.655,672.816 937.632,682.694 915.605,682.694C900.783,682.694 881.399,685.061 867.375,679.802C861.18,677.479 853.785,671.825 846.39,666.822C844.509,665.55 842.627,664.345 840.746,663.445C840.156,663.163 839.145,662.823 838.722,662.686C834.261,663.837 831.749,667.822 829.07,671.789C825.721,676.75 822.72,682.273 819.426,687.402C811.519,699.714 801.778,709.601 787.433,712.47C770.107,715.935 756.718,709.502 744.535,699.95C739.385,695.912 734.482,691.293 729.318,687.4C724.794,683.99 720.174,680.818 714.007,681.846C703.975,683.518 695.204,689.338 686.173,694.818C673.786,702.333 661.119,709.536 646.825,711.919C629.766,714.762 619.192,707.64 610.495,696.825C607.203,692.731 604.253,687.968 600.971,683.554C598.558,680.307 596.253,676.814 591.898,676.088C585.438,675.011 580.335,677.948 575.31,681.133C569.843,684.598 564.558,688.686 559.006,692.175C546.403,700.096 532.67,705.16 515.204,700.793C498.864,696.708 487.137,687.186 476.06,676.71C468.135,669.214 460.728,661.023 450.189,656.506C449.71,656.3 449.282,656.686 448.832,656.82C447.776,657.133 446.739,657.559 445.707,658.003C441.568,659.783 437.493,661.777 433.524,662.911C415.223,668.14 394.845,678.482 376.221,681.918C364.048,684.164 352.461,683.735 342.02,679.378C331.381,674.938 321.568,666.475 313.941,651.22C309.302,641.942 306.162,632.147 303.642,622.432C301.527,614.276 306.431,605.937 314.587,603.821C322.743,601.705 331.083,606.609 333.199,614.766C335.191,622.448 337.583,630.227 341.251,637.565C344.803,644.668 348.825,649.132 353.779,651.199C358.929,653.348 364.677,652.998 370.681,651.89C388.406,648.62 407.718,638.528 425.136,633.552C430.252,632.09 435.512,628.811 440.987,627.307C447.866,625.416 454.918,625.312 462.217,628.44C476.187,634.427 486.537,644.59 497.041,654.525C504.394,661.48 511.763,668.459 522.61,671.17C529.68,672.938 535.279,670.691 540.474,667.701C545.808,664.63 550.8,660.771 555.912,657.337C568.152,649.116 581.042,643.323 596.917,645.969C610.785,648.28 619.79,657.234 627.249,667.787C629.43,670.872 631.481,674.061 633.698,676.937C635.758,679.61 637.694,682.485 641.805,681.8C652.263,680.057 661.273,674.21 670.335,668.712C682.752,661.179 695.194,654.026 708.988,651.727C725.611,648.957 738.649,655.667 750.678,665.342C755.653,669.344 760.444,673.857 765.566,677.579C770.166,680.922 775.02,683.813 781.445,682.528C786.526,681.512 789.382,677.329 792.279,673.1C795.652,668.175 798.628,662.7 801.85,657.629C809.718,645.246 819.307,635.414 833.271,632.621C841.327,631.01 850.295,633.433 858.986,638.64C865.793,642.718 872.421,649.084 878.097,651.212C888.987,655.296 904.095,652.159 915.605,652.159C930.047,652.159 935.816,642.949 942.655,635.615C951.079,626.58 960.211,618.75 974.035,615.985C980.033,614.786 987.563,615.942 995.475,619.426C1005.7,623.93 1017.42,633.231 1024.73,635.667C1032.91,638.397 1046.86,642.683 1059.58,643.896C1065.22,644.433 1070.58,644.936 1074.11,642.818C1076.78,641.217 1077.63,637.975 1079.02,634.94C1081.06,630.511 1083.03,625.869 1085.54,621.593C1091.34,611.728 1099.52,603.558 1114.16,600.629C1131.65,597.13 1148.81,603.568 1165.83,610.752C1176.66,615.326 1187.33,620.741 1198.58,618.208Z"/>
    <path d="M327.306,633.261C327.099,634.955 326.322,641.165 325.864,643.226C319.82,670.425 327.493,688.108 339.332,711.786C349.011,731.143 353.289,753.964 367.031,771.14C401.191,813.841 436.329,827.489 486.624,844.254C509.859,851.999 535.723,856.193 560.447,860.314C570.542,861.996 579.71,865.575 588.976,869.14C596.097,871.879 603.285,874.648 611.45,875.555C677.143,882.855 745.254,878.437 809.793,869.217C817.12,868.17 824.714,868.649 832.301,869.214C837.547,869.606 842.787,870.112 847.832,869.271C888.255,862.534 931.911,870.907 971.562,857.69C991.846,850.929 1010.95,841.575 1030.52,833.188C1043.64,827.564 1059.07,826.262 1071.55,818.773C1093.24,805.758 1114.83,786.791 1138.36,777.379C1158.67,769.253 1173.99,754.474 1191.17,741.591C1219.41,720.411 1239.73,693.535 1260.42,665.944C1269.76,653.494 1282.1,643.779 1289.05,629.887C1290.16,627.662 1289.62,625.025 1289.67,622.425C1289.77,618.016 1290.03,613.583 1291.09,609.338C1292.65,603.092 1296.63,595.62 1299.84,588.119C1300.66,586.177 1301.42,584.235 1301.91,582.316C1302.16,581.318 1302.6,580.373 1302.3,579.478C1299.83,572.06 1293.74,566.534 1290.33,559.724C1286.56,552.187 1289.62,543.009 1297.16,539.241C1304.69,535.472 1313.87,538.532 1317.64,546.068C1321.68,554.143 1328.33,561.027 1331.27,569.822C1333.87,577.636 1333,586.403 1329.85,595.223C1327.14,602.792 1322.29,610.439 1320.72,616.743C1319.76,620.564 1320.25,624.668 1320.02,628.551C1319.69,633.851 1318.68,638.909 1316.36,643.542C1308.59,659.079 1295.29,670.341 1284.85,684.265C1262.41,714.177 1240.11,743.057 1209.49,766.018C1190.17,780.513 1172.56,796.587 1149.7,805.73C1127.62,814.561 1107.61,832.745 1087.26,844.956C1073.6,853.151 1056.91,855.099 1042.55,861.253C1022.2,869.973 1002.31,879.628 981.217,886.658C940.06,900.377 894.812,892.397 852.852,899.39C845.438,900.626 837.739,900.239 830.031,899.664C824.664,899.264 819.294,898.704 814.111,899.445C747.071,909.022 676.316,913.485 608.078,905.903C597.185,904.693 587.514,901.293 578.013,897.638C570.657,894.809 563.441,891.768 555.427,890.433C529.141,886.052 501.672,881.456 476.968,873.221C420.477,854.391 381.556,838.176 343.187,790.215C328.107,771.365 322.643,746.685 312.021,725.441C296.727,694.853 288.248,671.739 296.057,636.602C296.585,634.225 296.768,629.669 297.545,626.232C298.461,622.182 300.086,618.869 301.812,616.665C307.007,610.03 316.611,608.862 323.245,614.057C329.168,618.694 330.735,626.846 327.306,633.261Z"/>
    <path d="M643.277,424.638C644.232,416.266 651.805,410.244 660.177,411.2C668.548,412.155 674.57,419.727 673.615,428.099C672.93,434.097 674.783,440.244 677.52,446.159C682.683,457.315 691.274,467.573 698.619,474.918C744.751,521.05 822.436,534.374 885.184,513.459C889.713,511.949 895.426,510.908 900.985,509.573C903.947,508.861 906.949,508.312 909.004,506.771C920.347,498.263 930.061,486.137 940,476.197C950.86,465.338 964.025,458.839 973.773,445.841C977.753,440.534 979.719,432.207 982.163,425.303C985.025,417.216 988.516,410.407 992.467,406.455C998.425,400.497 1008.1,400.497 1014.06,406.455C1020.02,412.413 1020.02,422.088 1014.06,428.046C1011.87,430.233 1011.13,434.914 1009.53,439.588C1006.53,448.402 1003.06,457.677 998.201,464.161C987.529,478.39 973.479,485.901 961.592,497.788C950.665,508.715 939.794,521.847 927.325,531.198C923.098,534.368 917.626,536.696 911.669,538.348C905.929,539.941 899.621,540.832 894.84,542.426C821.521,566.866 730.932,550.413 677.028,496.509C660.15,479.631 640.311,450.636 643.277,424.638Z"/>
    <path d="M776.513,524.901C776.265,525.455 775.981,525.999 775.661,526.531C771.32,533.753 761.932,536.091 754.71,531.749C742.263,524.266 754.563,503.659 754.563,503.659C754.563,503.659 754.022,504.136 753.808,504.35C764.405,493.753 783.12,487.043 797.44,484.179C820.049,479.657 833.638,479.908 845.109,484.063C856.321,488.125 865.846,496.262 879.693,510.109C885.651,516.067 885.651,525.742 879.693,531.7C873.734,537.658 864.06,537.658 858.101,531.7C848.478,522.076 842.503,515.595 834.71,512.773C827.175,510.043 818.278,511.151 803.429,514.121C794.848,515.837 783.399,518.889 776.513,524.901ZM775.056,509.865C774.049,508.336 772.585,506.868 770.443,505.58C772.322,506.709 773.87,508.18 775.056,509.865Z"/>
    <path d="M752.144,418.665C757.956,415.676 762.776,410.439 768.206,406.247C775.264,400.798 782.856,396.367 791.682,394.602C805.561,391.826 814.41,395.497 821.8,401.131C824.985,403.56 827.829,406.514 830.765,409.494C831.875,410.62 832.963,411.828 834.239,412.862C837.259,410.676 842.071,407.329 845.589,405.53C852.561,401.965 860.284,400.32 868.761,402.439C881.232,405.557 888.432,411.337 894.513,417.476C897.146,420.133 899.223,423.085 902.274,425.272C903.787,424.734 906.214,423.849 907.691,423.208C911.189,421.688 914.471,420.352 917.021,419.715C920.736,418.786 925.008,418.786 929.628,420.086C935.43,421.719 942.498,425.927 949.153,431.774C957.614,439.208 965.599,449.184 969.681,456.917C972.586,462.42 973.741,467.426 973.741,470.997C973.741,479.423 966.9,486.264 958.474,486.264C950.562,486.264 944.047,480.232 943.282,472.52C942.362,471.109 935.05,460.029 928.998,454.712C927.008,452.964 923.818,450.96 922.265,450.019C918.021,451.564 912.323,454.545 907.355,455.593C901.158,456.901 895.467,456.243 890.862,453.94C884.378,450.698 879.756,446.235 875.174,441.41C871.818,437.877 868.532,433.856 861.355,432.062C859.776,431.667 858.689,433.114 857.47,433.911C854.394,435.925 851.593,438.247 849.028,439.946C841.558,444.891 834.356,445.931 828.238,443.891C821.184,441.54 815.839,437.556 811.146,433.038C809.004,430.976 807.037,428.799 804.948,426.843C803.184,425.191 801.228,423.832 797.67,424.544C790.399,425.998 785.227,431.729 779.535,436.37C772.992,441.706 766.212,446.458 758.555,449.01C752.764,450.94 747.149,450.305 741.597,447.736C739.937,446.968 737.083,445.308 735.402,444.311C730.77,446.159 723.91,450.429 717.202,455.02C711.587,458.864 704.565,465.117 701.057,468.333C700.928,470.672 700.258,473.015 698.997,475.175C694.749,482.452 685.392,484.911 678.115,480.663C674.041,478.284 671.649,475.006 670.367,471.285C668.884,466.982 668.724,460.438 673.535,453.308C677.732,447.088 688.414,437.722 699.956,429.822C711.446,421.958 723.697,415.58 730.189,413.956C735.726,412.572 740.885,413.275 745.773,415.306C747.554,416.046 750.239,417.553 752.144,418.665Z"/>
    <path d="M662.194,247.807C672.149,243.476 685.491,244.793 696.637,251.547C710.939,260.215 719.197,276.075 714.464,290.273C713.316,293.716 711.137,296.941 707.957,299.618C705.035,302.078 700.734,304.057 697.85,305.498C673.736,317.556 654.142,305.995 646.123,291.483C641.367,282.876 640.619,272.988 644.056,264.596C646.866,257.737 652.45,251.294 662.194,247.807Z"/>
    <path d="M895.951,254.309C897.347,250.01 899.918,245.63 904.17,241.378C916.177,229.37 930.791,229.138 942.657,235.272C946.906,235.558 950.63,236.383 953.391,237.685C959.323,240.482 963.118,244.813 964.677,250.412C965.871,251.696 966.95,253.035 967.89,254.415C972.948,261.845 974.674,270.409 971.678,279.395C967.204,292.818 954.4,299.738 938.547,299.311C937.202,299.275 935.838,299.184 934.464,299.043C932.542,299.075 930.515,298.911 928.406,298.515C925.616,297.991 922.607,297.042 919.59,295.727C914.158,293.877 909.13,291.44 905.149,288.712C899.933,285.137 896.271,280.915 894.272,276.916C890.79,269.952 891.141,263.093 894.532,256.612C894.934,255.846 895.408,255.076 895.951,254.309Z"/>
    <path d="M759.327,252.493C759.04,247.844 762.582,243.836 767.231,243.549C771.88,243.262 775.888,246.804 776.175,251.453C777.309,269.821 786.022,279.092 796.064,277.861C806.691,276.559 815.669,264.666 815.669,245.135C815.669,240.477 819.45,236.695 824.109,236.695C828.767,236.695 832.549,240.477 832.549,245.135C832.549,275.998 814.91,292.558 798.117,294.616C780.724,296.748 761.292,284.308 759.327,252.493Z"/>
    <path d="M515.337,342.989C518.723,329.554 523.423,314.836 528.469,301.827C530.153,297.484 535.047,295.326 539.39,297.011C543.733,298.695 545.891,303.589 544.206,307.932C539.338,320.484 534.806,334.707 531.574,347.636C531.319,348.655 530.309,351.025 529.286,352.6C528.37,354.01 527.33,354.997 526.648,355.502C524.755,356.904 522.896,357.228 521.466,357.228C516.808,357.228 513.026,353.447 513.026,348.788C513.026,346.543 513.905,344.502 515.337,342.989Z"/>
    <path d="M579.18,409.775C579.086,409.793 578.975,409.815 578.887,409.835C571.608,411.455 547.981,420.248 542.021,423.297C541.976,423.319 541.923,423.348 541.872,423.375C538.567,425.847 533.857,425.582 530.854,422.579C527.56,419.285 527.56,413.937 530.854,410.643C531.399,410.098 532.871,408.954 535.309,407.787C539.981,405.552 550.938,401.284 560.463,397.947C567.094,395.624 573.07,393.766 575.975,393.2C577.881,392.828 579.3,392.86 580.105,392.962C584.726,393.55 588.001,397.778 587.413,402.399C586.878,406.615 583.311,409.71 579.18,409.775Z"/>
    <path d="M437.097,465.397C435.611,464.922 434.239,464.03 433.171,462.739C430.202,459.15 430.707,453.825 434.296,450.857C436.102,449.363 439.855,447.418 444.844,450.216C446.544,451.169 449.672,453.79 453.262,457.319C459.776,463.722 468.661,473.485 472.483,476.67C476.062,479.652 476.546,484.979 473.564,488.557C470.582,492.136 465.255,492.62 461.677,489.638C458.2,486.741 450.731,478.761 444.322,472.254C441.64,469.53 438.343,466.522 437.097,465.397ZM443.128,465.064C443.84,464.75 444.478,464.341 445.054,463.864C444.454,464.361 443.806,464.76 443.128,465.064Z"/>
    <path d="M559.923,514.204C563.257,512.705 567.315,513.507 569.806,516.428C572.828,519.972 572.405,525.304 568.86,528.326C567.616,529.387 565.744,530.414 563.09,530.86C560.95,531.221 557.591,531.197 553.497,531.093C544.343,530.859 529.381,529.686 521.451,541.582C518.867,545.458 513.622,546.507 509.746,543.923C505.87,541.339 504.822,536.094 507.405,532.218C515.278,520.41 527.253,516.005 538.675,514.67C546.885,513.711 557.882,514.117 559.923,514.204Z"/>
    <path d="M676.368,559.873C675.468,558.637 674.894,557.142 674.779,555.506C674.453,550.859 677.961,546.822 682.608,546.496C687.471,546.155 690.644,548.347 692.439,552.55C693.155,554.228 693.578,556.746 693.394,559.666C693.221,562.399 692.279,565.917 692.403,567.651C693.132,577.853 696.091,588.278 698.571,598.197C699.701,602.716 696.949,607.302 692.43,608.432C687.911,609.562 683.325,606.81 682.195,602.291C679.482,591.441 676.363,580.013 675.566,568.853C675.464,567.432 675.655,565.266 675.999,562.903C676.121,562.067 676.259,560.876 676.368,559.873Z"/>
    <path d="M927.338,594.07C923.935,593.455 888.155,587.003 881.927,586.224C877.304,585.647 874.021,581.425 874.599,576.803C875.176,572.181 879.398,568.897 884.02,569.475C890.38,570.27 918.018,573.433 930.154,577.114C936.162,578.936 939.554,582.036 940.583,583.95C942.789,588.052 941.249,593.174 937.147,595.38C933.856,597.15 929.91,596.51 927.338,594.07Z"/>
    <path d="M1067.7,538.467C1069.09,534.487 1073.27,532.084 1077.49,533.019C1080.4,533.664 1082.1,535.302 1083.18,537.124C1084.14,538.755 1084.73,540.833 1084.2,543.41C1083.95,544.635 1083,546.951 1080.8,549.367C1077.48,552.992 1069.75,559.223 1068.86,559.979C1059.32,568.048 1051.02,577.201 1041.17,585.08C1037.53,587.99 1032.21,587.399 1029.3,583.762C1026.39,580.124 1026.98,574.809 1030.62,571.899C1040.35,564.118 1048.54,555.062 1057.95,547.093C1058.62,546.535 1065.21,540.674 1067.7,538.467ZM1069.64,547.169C1070.6,548.242 1071.95,549.081 1073.84,549.499C1072.18,549.132 1070.74,548.299 1069.64,547.169Z"/>
    <path d="M1163.78,509.729C1159.08,508.432 1109.32,494.694 1101.03,492.622C1096.51,491.492 1093.76,486.906 1094.89,482.387C1096.02,477.867 1100.61,475.116 1105.12,476.246C1113.19,478.263 1151.26,487.112 1166.4,492.546C1171,494.195 1174.03,495.994 1175.21,497.108C1177.23,499.026 1177.89,501.077 1178.09,502.698C1178.66,507.322 1175.37,511.537 1170.74,512.106C1168.08,512.433 1165.55,511.48 1163.78,509.729ZM1161.38,505.065C1161.36,504.964 1161.35,504.862 1161.33,504.759C1161.35,504.86 1161.36,504.962 1161.38,505.065Z"/>
    <path d="M1177.41,351.632C1178.4,349.634 1180.18,348.031 1182.48,347.322C1184.98,346.551 1186.97,347.017 1188.5,347.72C1190.57,348.673 1192.37,350.319 1193.14,353.251C1193.22,353.552 1194.19,356.367 1192.07,360.01C1190.76,362.266 1183.26,373.921 1182.07,376.01C1175.49,387.528 1169.27,395.707 1158.9,404.006C1155.26,406.916 1149.94,406.326 1147.03,402.688C1144.12,399.051 1144.71,393.735 1148.35,390.825C1156.92,383.97 1161.97,377.149 1167.41,367.635C1168.55,365.641 1176.58,352.946 1177.41,351.632Z"/>
    <path d="M1049.87,375.113C1049.66,374.805 1048.83,373.603 1048.15,372.928C1046.78,371.569 1045.05,370.252 1043.15,368.983C1035.23,363.684 1024.39,359.319 1019.52,358.344C1014.96,357.431 1011.99,352.981 1012.9,348.413C1013.82,343.845 1018.26,340.878 1022.83,341.792C1030.01,343.228 1047.52,350.334 1057.39,358.547C1063.48,363.62 1066.71,369.501 1066.74,374.623C1066.76,379.282 1063,383.081 1058.34,383.102C1053.82,383.122 1050.11,379.579 1049.87,375.113Z"/>
    <path d="M863.151,368.504C862.843,368.542 862.093,368.645 861.633,368.781C860.116,369.226 858.538,369.972 856.951,370.804C851.352,373.741 845.725,377.609 841.788,379.085C837.427,380.721 832.558,378.508 830.922,374.146C829.287,369.785 831.5,364.916 835.861,363.28C841.177,361.287 849.649,354.709 856.872,352.586C862.496,350.932 867.673,351.367 871.874,354.058C875.796,356.571 876.94,361.796 874.428,365.718C871.996,369.514 867.024,370.708 863.151,368.504Z"/>
</svg>
